<svg xmlns="http://www.w3.org/2000/svg" viewBox="0 0 1600 1000" preserveAspectRatio="xMidYMid slice">
<defs><linearGradient id="bg" x1="0" x2="1" y1="0" y2="1"><stop offset="0" stop-color="#7c2b0a"/><stop offset=".55" stop-color="#d92720"/><stop offset="1" stop-color="#f0a11a"/></linearGradient><pattern id="flags" width="180" height="120" patternUnits="userSpaceOnUse"><path d="M0 0h60l-30 34z" fill="#ffd45a" opacity=".38"/><path d="M60 0h60L90 34z" fill="#fff7df" opacity=".30"/><path d="M120 0h60l-30 34z" fill="#e32922" opacity=".32"/></pattern><radialGradient id="light" cx="50%" cy="38%" r="55%"><stop offset="0" stop-color="#fff7df" stop-opacity=".35"/><stop offset="1" stop-color="#fff7df" stop-opacity="0"/></radialGradient></defs><rect width="1600" height="1000" fill="url(#bg)"/><rect width="1600" height="1000" fill="url(#flags)" opacity=".8"/><circle cx="800" cy="380" r="500" fill="url(#light)"/><path d="M0 785c180-84 347-88 502-12s300 88 435 20 292-88 431-21c88 42 165 62 232 61v167H0z" fill="#351507" opacity=".55"/><path d="M0 855c192-64 359-60 499 13s290 76 452 7 317-65 474 10c68 32 126 47 175 45v70H0z" fill="#210d04" opacity=".70"/></svg>